<svg xmlns="http://www.w3.org/2000/svg" viewBox="0 0 64 64">
  <!-- Transparent background; maximized icon within viewBox -->
  <g fill="none" stroke-linecap="round" stroke-linejoin="round">
    <!-- Sun (bigger, tucked behind cloud) -->
    <circle cx="20" cy="22" r="11" fill="#FFC107" stroke="#FFC107" stroke-width="0"/>
    <g stroke="#FFC107" stroke-width="3">
      <!-- Cardinal rays -->
      <line x1="20" y1="6" x2="20" y2="0"/>
      <line x1="20" y1="44" x2="20" y2="48"/>
      <line x1="4" y1="22" x2="0" y2="22"/>
      <line x1="36" y1="22" x2="40" y2="22"/>
      <!-- Diagonal rays -->
      <line x1="9" y1="11" x2="5" y2="7"/>
      <line x1="31" y1="11" x2="35" y2="7"/>
      <line x1="9" y1="33" x2="5" y2="37"/>
      <line x1="31" y1="33" x2="35" y2="37"/>
    </g>
    <!-- Cloud (large, centered) -->
    <path d="M14 46a12 12 0 0 1 12-12c2.6 0 5 .7 7.1 2A11 11 0 0 1 49 39h3a9 9 0 0 1 0 18H23a12 12 0 0 1-9-11z"
          fill="#ECEFF1" stroke="#90A4AE" stroke-width="3"/>
  </g>
</svg>

