<svg xmlns="http://www.w3.org/2000/svg" viewBox="0 0 64 64">
  <defs>
    <linearGradient id="sky" x1="0" y1="0" x2="0" y2="1">
      <stop offset="0%" stop-color="#89CFF0"/>
      <stop offset="100%" stop-color="#E6F4FA"/>
    </linearGradient>
  </defs>
  <rect width="64" height="64" rx="12" ry="12" fill="url(#sky)"/>
  <g transform="translate(10,18)">
    <circle cx="14" cy="14" r="8" fill="#FFC107"/>
    <g stroke="#FFC107" stroke-width="2">
      <line x1="14" y1="2" x2="14" y2="-2"/>
      <line x1="14" y1="30" x2="14" y2="34"/>
      <line x1="2" y1="14" x2="-2" y2="14"/>
      <line x1="30" y1="14" x2="34" y2="14"/>
      <line x1="5" y1="5" x2="2" y2="2"/>
      <line x1="23" y1="23" x2="26" y2="26"/>
      <line x1="5" y1="23" x2="2" y2="26"/>
      <line x1="23" y1="5" x2="26" y2="2"/>
    </g>
    <g transform="translate(14,12)">
      <circle cx="18" cy="12" r="10" fill="#CFD8DC"/>
      <circle cx="10" cy="14" r="8" fill="#ECEFF1"/>
      <circle cx="24" cy="16" r="8" fill="#ECEFF1"/>
      <rect x="6" y="16" width="22" height="8" rx="4" fill="#ECEFF1"/>
    </g>
  </g>
</svg>

